<?xml version="1.0" encoding="UTF-8"?>
<svg width="71px" height="40px" viewBox="0 0 71 40" version="1.1" xmlns="http://www.w3.org/2000/svg" xmlns:xlink="http://www.w3.org/1999/xlink">
    <title>Discord-big</title>
    <defs>
        <linearGradient x1="15.7766197%" y1="46.0325332%" x2="86.7966197%" y2="53.9674668%" id="linearGradient-1">
            <stop stop-color="#95D5F0" offset="0%"></stop>
            <stop stop-color="#EC7092" offset="51%"></stop>
            <stop stop-color="#F5EB4F" offset="100%"></stop>
        </linearGradient>
    </defs>
    <g id="page-1" stroke="none" stroke-width="1" fill="none" fill-rule="evenodd">
        <g  transform="translate(-146.000000, -260.000000)" fill-rule="nonzero">
            <g id="group-3" transform="translate(146.000000, 260.000000)">
                <path d="M20,0 L51,0 C62.045695,0 71,8.954305 71,20 L71,20 C71,31.045695 62.045695,40 51,40 L20,40 C8.954305,40 0,31.045695 0,20 L0,20 C0,8.954305 8.954305,0 20,0 Z" id="rect" fill="url(#linearGradient-1)"></path>
                <g id="discord-line" transform="translate(20.000000, 9.000000)" fill="#FFFFFF">
                    <path d="M20.28,19.17 C19.87,19.27 19.45,19.36 19.03,19.43 C16.7592502,19.8499192 14.4307498,19.8499192 12.16,19.43 C11.76,19.35 11.16,19.22 10.47,19.03 L8.09,22.03 C2.23,21.85 -3.55271368e-15,18 -3.55271368e-15,18 C0.0907250464,12.6850977 1.39746278,7.46156752 3.82,2.73 C5.96799161,1.07673882 8.57226321,0.123701088 11.28,0 L12.28,1.31 L12.57,1.31 C14.5615467,1.04994995 16.5784533,1.04994995 18.57,1.31 L19.72,0 C22.4296762,0.130755601 25.0337891,1.09071678 27.18,2.75 C29.6022503,7.47452217 30.9090613,12.6915034 31,18 C31,18 28.74,21.8 22.88,22 L20.28,19.17 Z M10.38,10.24 C9.03527755,10.3800487 8.04309464,11.5600357 8.1359262,12.9088405 C8.22875776,14.2576453 9.37324484,15.2905758 10.7244746,15.2450755 C12.0757043,15.1995751 13.1481133,14.0919943 13.15,12.74 C13.0692616,11.2876767 11.8329703,10.1718904 10.38,10.24 L10.38,10.24 Z M20.3,10.24 C18.9572782,10.3852814 17.97023,11.5669821 18.066372,12.9141143 C18.162514,14.2612466 19.3073745,15.2907974 20.6571194,15.2439232 C22.0068644,15.1970489 23.0775439,14.0905564 23.08,12.74 C22.9993026,11.2835843 21.756782,10.1662097 20.3,10.24 L20.3,10.24 Z" ></path>
                </g>
            </g>
        </g>
    </g>
</svg>