<?xml version="1.0" encoding="UTF-8"?>
<svg width="71px" height="40px" viewBox="0 0 71 40" version="1.1" xmlns="http://www.w3.org/2000/svg" xmlns:xlink="http://www.w3.org/1999/xlink">
    <title>group 77</title>
    <defs>
        <linearGradient x1="20.1968724%" y1="34.1301329%" x2="84.3536668%" y2="60.8883256%" id="linearGradient-1">
            <stop stop-color="#E9526A" offset="0%"></stop>
            <stop stop-color="#E4E797" offset="54.7972974%"></stop>
            <stop stop-color="#39BEEA" offset="100%"></stop>
        </linearGradient>
    </defs>
    <g id="page-1" stroke="none" stroke-width="1" fill="none" fill-rule="evenodd">
        <g id="web" transform="translate(-270.000000, -260.000000)" fill-rule="nonzero">
            <g id="group-77" transform="translate(270.000000, 260.000000)">
                <path d="M20,0 L51,0 C62.045695,0 71,8.954305 71,20 C71,31.045695 62.045695,40 51,40 L20,40 C8.954305,40 0,31.045695 0,20 C0,8.954305 8.954305,0 20,0 Z" id="rect-26" fill="url(#linearGradient-1)"></path>
                <g id="twitter" transform="translate(22.000000, 9.000000)" fill="#FFFFFF">
                    <path d="M28.2272727,2.73210059 C27.189231,3.18121302 26.0595973,3.50443787 24.8960407,3.63032544 C26.0969125,2.91242604 27.0094394,1.77943787 27.4402607,0.432100592 C26.3309808,1.09556213 25.0758322,1.58210059 23.7697993,1.83387574 C22.7114038,0.700887574 21.2086178,0 19.5430018,0 C16.3372846,0 13.7591417,2.60621302 13.7591417,5.80443787 C13.7591417,6.2535503 13.8134184,6.70266272 13.901618,7.13476331 C9.10152298,6.88298817 4.82044881,4.58298817 1.97431471,1.06153846 C1.4722553,1.92573964 1.18730266,2.91242604 1.18730266,3.99097633 C1.18730266,6.00517751 2.20838295,7.78121302 3.76544559,8.82573964 C2.81560346,8.78831361 1.92003802,8.51952663 1.14998744,8.08742604 L1.14998744,8.15887574 C1.14998744,10.9794379 3.13787132,13.3168639 5.78725241,13.8544379 C5.30215446,13.9803254 4.78313358,14.0517751 4.2641127,14.0517751 C3.88756815,14.0517751 3.53137735,14.0143491 3.17179426,13.9633136 C3.90452961,16.2633136 6.03828211,17.9338757 8.57910981,17.9883136 C6.59122592,19.55 4.10128263,20.4686391 1.39762485,20.4686391 C0.912526903,20.4686391 0.464744185,20.4516272 0,20.3971893 C2.56457375,22.0473373 5.60746086,23 8.88441621,23 C19.5226481,23 25.3438234,14.1606509 25.3438234,6.48831361 C25.3438234,6.23653846 25.3438234,5.98476331 25.3268619,5.73298817 C26.4531033,4.90621302 27.4402607,3.88210059 28.2272727,2.73210059 Z" id="path"></path>
                </g>
            </g>
        </g>
    </g>
</svg>