<?xml version="1.0" encoding="UTF-8"?>
<svg width="71px" height="40px" viewBox="0 0 71 40" version="1.1" xmlns="http://www.w3.org/2000/svg" xmlns:xlink="http://www.w3.org/1999/xlink">
    <title>wallet</title>
    <defs>
        <linearGradient x1="8.77464789%" y1="46.6673279%" x2="86.7966197%" y2="52.6978774%" id="linearGradient-1">
            <stop stop-color="#EB5F3B" offset="0%"></stop>
            <stop stop-color="#77C59E" offset="48%"></stop>
            <stop stop-color="#6677B9" offset="100%"></stop>
        </linearGradient>
    </defs>
    <g id="page-1" stroke="none" stroke-width="1" fill="none" fill-rule="evenodd">
        <g id="web" transform="translate(-394.000000, -260.000000)" fill-rule="nonzero">
            <g id="group" transform="translate(394.000000, 260.000000)">
                <path d="M20,0 L51,0 C62.045695,0 71,8.954305 71,20 L71,20 C71,31.045695 62.045695,40 51,40 L20,40 C8.954305,40 0,31.045695 0,20 L0,20 C0,8.954305 8.954305,0 20,0 Z" id="rect-2" fill="url(#linearGradient-1)"></path>
                <g id="wallet" transform="translate(22.840000, 8.116440)" fill="#FFFFFF">
                    <path d="M25.6,12.0235599 L20.6,12.0235599 C19.2938466,11.9379558 18.1656041,12.9274065 18.08,14.2335599 C17.9943959,15.5397133 18.9838466,16.6679558 20.29,16.7535599 L25.6,16.7535599 L25.6,20.7535599 C25.5835403,22.0656949 24.5122264,23.1191537 23.2,23.1135821 L2.4,23.1135821 C1.08777363,23.1191537 0.0164596878,22.0656949 0,20.7535599 L0,20.7535599 L0,8.07355989 C0.0164596878,6.76142484 1.08777363,5.70796612 2.4,5.71353772 L23.16,5.71353772 C24.4722264,5.70796612 25.5435403,6.76142484 25.56,8.07355989 L25.56,8.07355989 L25.56,12.0735599 L25.6,12.0235599 Z M23.72,4.53355989 L3.57,4.53355989 C3.81155639,4.35347386 4.08710136,4.22420585 4.38,4.15355989 L20.01,0.0835598941 C21.2756415,-0.257484949 22.5817846,0.475554523 22.95,1.73355989 L23.72,4.53355989 Z M20.6,12.8035599 L24.8,12.8035599 C25.009526,12.8008909 25.2115288,12.8815737 25.3615616,13.0278557 C25.5115944,13.1741377 25.5973646,13.3740335 25.6,13.5835599 L25.6,13.5835599 L25.6,15.1535599 C25.6,15.3630809 25.5167681,15.5640205 25.3686144,15.7121743 C25.2204606,15.860328 25.019521,15.9435599 24.81,15.9435599 L20.6,15.9435599 C19.7343833,16.0055114 18.9808213,15.3577051 18.9121617,14.4925947 C18.8435022,13.6274842 19.4854478,12.8689233 20.35,12.7935599 C20.4334234,12.786414 20.5174139,12.7897736 20.6,12.8035599 Z M20.8,15.3635599 C21.3522847,15.3635599 21.8,14.9158446 21.8,14.3635599 C21.8,13.8112751 21.3522847,13.3635599 20.8,13.3635599 C20.2477153,13.3635599 19.8,13.8112751 19.8,14.3635599 C19.8,14.9158446 20.2477153,15.3635599 20.8,15.3635599 Z" id="stroke-2"></path>
                </g>
            </g>
        </g>
    </g>
</svg>